<svg width="50" height="50" viewBox="0 0 50 50" fill="none" xmlns="http://www.w3.org/2000/svg">
<path d="M22.9167 35.4167H27.0833V27.0833H35.4167V22.9167H27.0833V14.5833H22.9167V22.9167H14.5833V27.0833H22.9167V35.4167ZM10.4167 43.75C9.27084 43.75 8.28959 43.3417 7.47292 42.525C6.65625 41.7083 6.24861 40.7278 6.25 39.5833V10.4167C6.25 9.27084 6.65834 8.28959 7.475 7.47292C8.29167 6.65625 9.27223 6.24861 10.4167 6.25H39.5833C40.7292 6.25 41.7104 6.65834 42.5271 7.475C43.3438 8.29167 43.7514 9.27223 43.75 10.4167V39.5833C43.75 40.7292 43.3417 41.7104 42.525 42.5271C41.7083 43.3438 40.7278 43.7514 39.5833 43.75H10.4167Z" fill="#136DBB"/>
</svg>
