<svg width="50" height="50" viewBox="0 0 50 50" fill="none" xmlns="http://www.w3.org/2000/svg">
<path d="M12.9167 5.08333L37.7084 29.875L42.125 25.4583L45.0625 28.3958L39.9167 33.5417L46.5417 40.1667C47.3542 40.9792 47.3542 42.2917 46.5417 43.1042L45.0625 44.5833C44.8698 44.7765 44.6409 44.9297 44.3888 45.0342C44.1368 45.1388 43.8666 45.1926 43.5938 45.1926C43.3209 45.1926 43.0508 45.1388 42.7987 45.0342C42.5467 44.9297 42.3178 44.7765 42.125 44.5833L35.4167 37.9792L30.3334 43.125L27.3959 40.1875L31.8125 35.7708L7.02088 10.9792V5.08333H12.9167ZM33.1042 20.8333L42.9792 10.9583V5.08333H37.0834L27.2084 14.9583L33.1042 20.8333ZM22.7917 31.25L16.8959 25.2708L12.2917 29.875L7.87505 25.4583L4.93755 28.3958L10.0834 33.5417L3.45838 40.1875C3.26525 40.3802 3.11202 40.6092 3.00748 40.8612C2.90293 41.1132 2.84912 41.3834 2.84912 41.6562C2.84912 41.9291 2.90293 42.1993 3.00748 42.4513C3.11202 42.7033 3.26525 42.9323 3.45838 43.125L4.93755 44.6042C5.75005 45.4167 7.06255 45.4167 7.87505 44.6042L14.5834 37.9792L19.6667 43.125L22.6042 40.1875L18.1875 35.7708L22.7917 31.25Z" fill="#136DBB"/>
</svg>
