<svg width="50" height="50" viewBox="0 0 50 50" fill="none" xmlns="http://www.w3.org/2000/svg">
<path d="M48.6358 1.47705L40.1339 4.86768L24.0694 20.9321L20.685 17.7979L23.7275 14.9811L1.9502 1.93477L17.2027 16.0645L14.1662 18.8782L20.3735 24.6277L13.5347 31.4666C13.8207 31.8114 14.1127 32.1512 14.4104 32.4859L15.3534 33.4289L22.3358 26.4465L23.6755 27.6855L16.6442 34.7168L17.6055 35.6781C17.9472 35.9832 18.2941 36.2823 18.6462 36.5753L25.6774 29.544L29.6601 33.2306L26.828 35.8552L48.6054 48.9015L33.1083 34.5489L35.9403 31.9276L29.3762 25.8454L45.2453 9.97627L48.6357 1.47725L48.6358 1.47705ZM42.0597 6.72002L43.3505 8.01084L27.3712 23.9899L26.0316 22.751L42.0595 6.71992L42.0597 6.72002ZM8.75889 27.8992L6.04248 30.6152L19.4552 44.0308L22.171 41.3116C16.6746 37.9255 12.111 33.3412 8.75859 27.8993L8.75889 27.8992ZM10.5899 37.7441L2.67979 45.6543L4.41318 47.3877L12.3233 39.4775L10.5899 37.7441Z" fill="#136DBB"/>
</svg>
