<svg width="15" height="15" viewBox="0 0 15 15" fill="none" xmlns="http://www.w3.org/2000/svg">
<g clip-path="url(#clip0_271_8)">
<path d="M7.5 0.9375C9.24048 0.9375 10.9097 1.6289 12.1404 2.85961C13.3711 4.09032 14.0625 5.75952 14.0625 7.5C14.0625 9.24048 13.3711 10.9097 12.1404 12.1404C10.9097 13.3711 9.24048 14.0625 7.5 14.0625C5.75952 14.0625 4.09032 13.3711 2.85961 12.1404C1.6289 10.9097 0.9375 9.24048 0.9375 7.5C0.9375 5.75952 1.6289 4.09032 2.85961 2.85961C4.09032 1.6289 5.75952 0.9375 7.5 0.9375V0.9375ZM6.6825 8.79469L5.22469 7.33594C5.17243 7.28368 5.11038 7.24222 5.0421 7.21393C4.97381 7.18565 4.90063 7.17109 4.82672 7.17109C4.75281 7.17109 4.67962 7.18565 4.61134 7.21393C4.54306 7.24222 4.48101 7.28368 4.42875 7.33594C4.3232 7.44149 4.26391 7.58464 4.26391 7.73391C4.26391 7.88317 4.3232 8.02633 4.42875 8.13187L6.285 9.98813C6.33711 10.0406 6.39911 10.0823 6.46741 10.1108C6.53572 10.1392 6.60898 10.1539 6.68297 10.1539C6.75696 10.1539 6.83022 10.1392 6.89852 10.1108C6.96683 10.0823 7.02882 10.0406 7.08094 9.98813L10.9247 6.14344C10.9776 6.09139 11.0198 6.02938 11.0487 5.96097C11.0775 5.89256 11.0926 5.81911 11.0929 5.74486C11.0933 5.6706 11.0789 5.59702 11.0507 5.52834C11.0224 5.45967 10.9809 5.39726 10.9284 5.34473C10.8759 5.29219 10.8136 5.25056 10.7449 5.22225C10.6763 5.19393 10.6027 5.17949 10.5285 5.17974C10.4542 5.18 10.3807 5.19496 10.3123 5.22375C10.2439 5.25254 10.1818 5.2946 10.1297 5.3475L6.6825 8.79469Z" fill="#75B798"/>
</g>
<defs>
<clipPath id="clip0_271_8">
<rect width="15" height="15" fill="white"/>
</clipPath>
</defs>
</svg>
