<svg width="80" height="80" viewBox="0 0 80 80" fill="none" xmlns="http://www.w3.org/2000/svg">
<g clip-path="url(#clip0_8_17)">
<path d="M79.3017 31.4501C78.739 28.518 77.8485 25.659 76.6473 22.9271C73.0373 14.8787 66.806 8.30182 58.9773 4.27747C51.1487 0.253121 42.1885 -0.979318 33.5693 0.782694C32.1071 1.07686 30.6635 1.45802 29.2464 1.92416C27.1947 2.43712 25.1903 3.12449 23.2549 3.9788C18.3169 6.17843 13.8864 9.38014 10.2423 13.3823C6.59823 17.3844 3.8195 22.1003 2.08112 27.233C0.342749 32.3657 -0.317605 37.8039 0.141646 43.2052C0.600897 48.6065 2.1698 53.8539 4.74956 58.6169C5.67012 60.312 6.70922 61.9395 7.85906 63.4872C9.02574 65.0159 10.2926 66.465 11.6511 67.8248C17.0427 73.2078 23.8783 76.9013 31.325 78.4551C38.7717 80.0089 46.508 79.3561 53.5915 76.576L56.0942 75.5106L58.3695 74.3692C59.8996 73.5067 61.3692 72.5406 62.7683 71.4774L64.816 69.8794L65.7261 69.0423L66.5604 68.3574L68.0772 66.9877L68.6081 66.5311L69.0631 65.9984L70.4283 64.4765C72.1366 62.5345 73.6364 60.4174 74.9029 58.1604C76.8934 54.6776 78.3266 50.9028 79.15 46.974C80.2298 41.861 80.2813 36.5833 79.3017 31.4501ZM66.0295 67.4443L65.1194 68.2813L64.2093 69.1184L62.2374 70.7165C60.8601 71.7272 59.4158 72.6424 57.9144 73.456L55.6392 74.5975L53.2123 75.5867L49.496 76.8043H49.1168C44.042 77.8666 38.806 77.8925 33.721 76.8804C30.821 76.2883 27.9969 75.3693 25.3026 74.1409C22.4603 72.849 19.7861 71.2135 17.3392 69.2706C14.7478 67.1873 12.4289 64.7839 10.4377 62.1174C9.40591 60.7367 8.4684 59.2875 7.63154 57.7799C7.17649 57.0189 6.79728 56.2579 6.41808 55.4208C6.03887 54.5838 5.65966 53.8228 5.43214 52.9857C2.96915 46.5466 2.27507 39.5619 3.42243 32.7616C4.56979 25.9613 7.51647 19.595 11.9545 14.3281L12.5612 13.7193L12.9404 13.2627L13.3955 12.8061L14.3056 11.9691L16.1258 10.371C20.4393 6.86379 25.4611 4.33947 30.8434 2.97292C36.2257 1.60638 41.8398 1.43028 47.2966 2.45684C51.2012 3.16392 54.9661 4.50021 58.4453 6.41392C60.6959 7.6534 62.8064 9.13321 64.7402 10.8276L66.257 12.1973L66.7879 12.6539L67.2429 13.1866L68.6081 14.7086C72.9287 19.6693 75.8829 25.6764 77.1782 32.1349C78.1787 37.2123 78.1529 42.4395 77.1023 47.5067C76.508 50.3908 75.5921 53.1987 74.372 55.8774C73.0391 58.7382 71.3577 61.4221 69.3665 63.8677L67.7738 65.694L66.0295 67.4443ZM31.9767 77.337C28.3468 76.584 24.8463 75.3021 21.5864 73.5321C19.9489 72.6309 18.3775 71.6137 16.8842 70.4882C15.415 69.3643 14.0215 68.1441 12.7129 66.8355C7.57331 61.6173 4.05028 55.017 2.56976 47.8325C1.08925 40.648 1.71465 33.187 4.37036 26.3515C4.67372 25.5144 5.05293 24.7535 5.35629 23.9925L5.81134 23.0032C4.6347 25.685 3.76947 28.4937 3.23273 31.374C1.77813 38.6302 2.4094 46.1518 5.05293 53.0618C5.35629 53.8989 5.7355 54.736 6.11471 55.4969C6.49392 56.2579 6.87312 57.095 7.32817 57.856C8.16267 59.3894 9.10022 60.864 10.1343 62.2696C12.1408 64.9703 14.4859 67.4 17.1117 69.4989C19.6036 71.4765 22.3292 73.1378 25.2268 74.4453C32.0439 77.5244 39.6044 78.5553 46.9933 77.4131C42.0321 78.3862 36.9277 78.3604 31.9767 77.337ZM78.9225 46.974C78.1252 50.8992 76.7176 54.6741 74.7512 58.1604C73.5091 60.4143 72.0348 62.5312 70.3524 64.4765L68.9873 65.9984L68.5322 66.5311L68.0013 66.9877L66.5604 68.2813H66.712L68.4564 66.455L70.0491 64.5526C72.0228 62.0268 73.6785 59.2664 74.9788 56.334C78.2976 48.7765 79.1471 40.3588 77.4057 32.2871C76.9543 30.1561 76.32 28.0683 75.5097 26.0471C74.8469 24.3431 74.0611 22.69 73.1586 21.1008C71.8911 18.8443 70.3913 16.7274 68.6839 14.7847L67.3188 13.2627L66.8637 12.73L66.3328 12.2734L64.816 10.9037C62.9141 9.09385 60.8299 7.48717 58.597 6.10953C57.0155 5.17761 55.3678 4.3637 53.6673 3.67441C51.6551 2.83614 49.5743 2.17416 47.4483 1.69587C44.287 0.997511 41.0522 0.690831 37.8164 0.782694C43.6651 0.267614 49.5537 1.10053 55.0325 3.21782L57.4594 4.20709L59.8105 5.42465C61.3133 6.26394 62.7576 7.20464 64.1334 8.24027L66.1053 9.83832L67.0154 10.6754L67.9255 11.5125L69.6699 13.2627L71.2625 15.0891C73.226 17.5397 74.8816 20.2232 76.1922 23.0793C77.4123 25.758 78.3282 28.5659 78.9225 31.4501C79.9521 36.5475 79.9521 41.8004 78.9225 46.8979V46.974Z" fill="#136DBB"/>
<path d="M40.1345 30.4458C43.562 30.4458 48.8754 26.738 45.9198 20.5188C45.7543 20.1707 46.228 19.8779 46.46 20.185C51.3544 26.6717 46.0124 33.7337 40.1345 33.7337H40.1155C34.2376 33.7337 28.8957 26.6717 33.7901 20.185C34.0221 19.8775 34.4957 20.1707 34.3303 20.5188C31.3747 26.7385 36.7831 30.4458 40.1345 30.4458Z" fill="#136DBB"/>
<path d="M44.7051 35.8713C48.752 33.9728 52.7985 35.7382 52.7985 39.7147C52.7985 42.3964 50.2833 45.7494 46.2372 43.7423C45.9577 43.6038 46.1012 43.1843 46.4077 43.2426C48.8055 43.6997 50.4921 42.0432 50.4921 40.176C50.4921 37.4035 47.3938 37.6363 45.5522 38.6941L35.5445 43.6219C31.4976 45.5204 27.4511 43.755 27.4511 39.7785C27.4511 37.0968 29.9663 33.7439 34.0124 35.7509C34.2919 35.8895 34.1484 36.309 33.8419 36.2507C31.4441 35.7936 29.7575 37.45 29.7575 39.3172C29.7575 42.0897 32.8558 41.8569 34.6974 40.7991L44.7055 35.8705L44.7051 35.8713Z" fill="#136DBB"/>
<path d="M40.1248 14.2552C36.1011 14.2552 35.2978 20.1986 37.6791 22.5959C37.9279 22.8464 38.3258 22.5258 38.1363 22.2276C36.8724 20.2345 37.9089 16.9166 40.1248 16.9204C42.3406 16.9166 43.3772 20.2345 42.1133 22.2271C41.9238 22.5258 42.3217 22.8464 42.5705 22.5955C44.9518 20.1986 44.1485 14.2552 40.1248 14.2552Z" fill="#136DBB"/>
<path d="M16.5333 57.9479C16.4367 57.9479 16.34 57.9237 16.2433 57.8994C16.1587 57.8873 16.0861 57.8267 16.0257 57.766C15.9653 57.7054 15.929 57.6448 15.9169 57.5599C15.9048 57.4871 15.9048 57.4265 15.8928 57.3537V56.9777V53.6913V50.3805C15.8928 50.2592 15.8928 50.1258 15.9048 50.0046C15.9048 49.9197 15.9169 49.8469 15.9411 49.7742C15.9774 49.6529 16.062 49.568 16.1707 49.5195C16.2433 49.4952 16.3158 49.471 16.4004 49.471C16.485 49.4588 16.5696 49.4588 16.6542 49.4588H19.0836C19.5912 49.4588 20.0988 49.5316 20.5823 49.6529C21.0295 49.762 21.4283 49.9561 21.7909 50.2229C22.2502 50.5503 22.5282 50.999 22.6612 51.5447C22.7458 51.8843 22.7579 52.236 22.6974 52.5877C22.637 52.9636 22.5161 53.3274 22.3227 53.6549C22.2623 53.7519 22.2019 53.8368 22.1294 53.9217C21.7789 54.334 21.3317 54.6129 20.8119 54.807C20.4373 54.9525 20.0505 55.0374 19.6516 55.0859C19.4341 55.1102 19.2044 55.1465 18.9869 55.1587C18.8781 55.1587 18.7693 55.1829 18.6606 55.195C18.6243 55.2072 18.5759 55.2193 18.5276 55.2436C18.4309 55.2921 18.3584 55.3648 18.31 55.474C18.2738 55.5589 18.2617 55.6438 18.2496 55.7286V56.0803C18.2375 56.432 18.2496 56.7837 18.2375 57.1354V57.4022C18.2254 57.4628 18.2134 57.5356 18.2013 57.5962C18.165 57.7296 18.0804 57.8145 17.9595 57.8752C17.9112 57.8873 17.8629 57.9116 17.8145 57.9116C17.742 57.9237 17.6574 57.9479 17.5849 57.9479H16.5333ZM18.6726 53.57C18.7693 53.5821 18.866 53.5821 18.9627 53.57C19.3616 53.5579 19.7 53.4123 19.9659 53.1092C20.0747 52.9879 20.1472 52.8545 20.1955 52.709C20.2681 52.43 20.2439 52.1632 20.1351 51.8964C20.0505 51.6903 19.9175 51.5326 19.7362 51.4113C19.422 51.2173 19.0836 51.1445 18.7331 51.1688C18.4913 51.1809 18.31 51.3507 18.2617 51.5811C18.2496 51.666 18.2496 51.7388 18.2496 51.8237V52.3694V52.9636C18.2496 53.0485 18.2617 53.1334 18.2859 53.2183C18.3342 53.4245 18.4672 53.5336 18.6726 53.57ZM27.6027 57.9467C27.2914 57.9484 26.9798 57.9483 26.6685 57.9467C26.5515 57.946 26.4358 57.9294 26.3222 57.8997C26.1576 57.8568 26.0475 57.755 26.0025 57.5907C25.9796 57.5065 25.9653 57.419 25.9568 57.332C25.9483 57.2448 25.9503 57.1565 25.9501 57.0687C25.9495 56.7172 25.9498 56.3657 25.9498 56.0142H25.9492C25.9492 55.6919 25.9498 55.3698 25.949 55.0476C25.9486 54.9402 25.9478 54.8326 25.9412 54.7255C25.9286 54.5189 25.8823 54.3202 25.7879 54.1344C25.7037 53.9693 25.6225 53.8025 25.5354 53.639C25.2782 53.1571 25.0194 52.676 24.7599 52.1953C24.6023 51.9035 24.4422 51.6131 24.2832 51.322C24.2505 51.262 24.2179 51.2019 24.1858 51.1417C24.0479 50.8836 23.9094 50.6258 23.7728 50.367C23.7137 50.2548 23.657 50.1413 23.6028 50.0267C23.5691 49.9557 23.5519 49.8797 23.5521 49.7999C23.5523 49.6685 23.6147 49.5768 23.731 49.5228C23.7745 49.5026 23.8223 49.4875 23.8698 49.481C23.9467 49.4704 24.0248 49.4645 24.1024 49.464C24.443 49.4622 24.7836 49.4612 25.1242 49.464C25.221 49.4647 25.3183 49.4753 25.4145 49.4885C25.6335 49.5187 25.789 49.643 25.8943 49.8328C25.9416 49.9179 25.9836 50.0064 26.0216 50.0962C26.1813 50.4736 26.3384 50.8521 26.4965 51.2302C26.5718 51.4103 26.6456 51.5909 26.7231 51.77C26.758 51.8504 26.7978 51.929 26.8399 52.0059C26.8778 52.0752 26.9332 52.1302 26.999 52.1743C27.0767 52.2262 27.1977 52.2264 27.2758 52.1744C27.3419 52.1304 27.3953 52.0743 27.4328 52.0043C27.4604 51.9527 27.4856 51.8997 27.5085 51.8459C27.6988 51.3967 27.8883 50.9472 28.0782 50.4977C28.1541 50.318 28.2303 50.1383 28.3065 49.9587C28.3568 49.8403 28.4285 49.7372 28.5225 49.6491C28.5953 49.5808 28.6777 49.533 28.7744 49.5081C28.8787 49.4813 28.9843 49.4651 29.0918 49.4648C29.4615 49.4639 29.8313 49.4624 30.2011 49.4659C30.2878 49.4668 30.3754 49.4819 30.4608 49.4987C30.5075 49.5078 30.5539 49.529 30.5946 49.5541C30.674 49.6029 30.722 49.6761 30.7195 49.7719C30.718 49.8298 30.7135 49.8904 30.6947 49.9442C30.6626 50.0359 30.6235 50.126 30.578 50.2119C30.3497 50.6429 30.1192 51.0728 29.8881 51.5022C29.546 52.1379 29.2018 52.7724 28.8604 53.4085C28.745 53.6234 28.6374 53.8424 28.5231 54.0578C28.3922 54.3042 28.3236 54.5647 28.3274 54.8447C28.3296 55.0009 28.3247 55.1571 28.3247 55.3135C28.3242 55.8895 28.3242 56.4655 28.3245 57.0416C28.3245 57.2178 28.3144 57.3929 28.2769 57.5656C28.2643 57.6233 28.2448 57.6783 28.2106 57.7269C28.1524 57.8097 28.0746 57.8656 27.9774 57.8932C27.855 57.9277 27.7296 57.946 27.6027 57.9467ZM34.3917 57.9466C34.2649 57.9456 34.1389 57.9294 34.0163 57.8955C33.8634 57.8535 33.7628 57.7512 33.7158 57.6024C33.6926 57.5291 33.6835 57.4495 33.6792 57.3721C33.6723 57.2454 33.6732 57.1182 33.6732 56.9912C33.6728 55.4671 33.6731 53.943 33.6727 52.4186C33.6727 52.272 33.6727 52.1254 33.6668 51.979C33.6635 51.9014 33.6555 51.8222 33.6356 51.7475C33.5865 51.5645 33.4713 51.4411 33.2864 51.3873C33.173 51.3545 33.0571 51.3432 32.9399 51.3422C32.755 51.3406 32.5699 51.3411 32.3849 51.34C32.2778 51.3393 32.1706 51.3393 32.0636 51.3343C31.9958 51.3312 31.9268 51.3259 31.8612 51.31C31.6742 51.2647 31.5495 51.1506 31.5149 50.9563C31.4495 50.5874 31.4493 50.2174 31.5131 49.8482C31.5446 49.6661 31.6556 49.5507 31.8302 49.5028C31.9139 49.4798 32.0023 49.47 32.0893 49.4646C32.2058 49.4574 32.3229 49.4591 32.4398 49.4591C33.248 49.4587 34.0561 49.459 34.8643 49.459C35.6725 49.459 36.4808 49.4587 37.289 49.4592C37.4058 49.4592 37.5231 49.4574 37.6394 49.4663C37.726 49.4729 37.8142 49.4865 37.8969 49.5125C38.0353 49.5559 38.1279 49.6539 38.1735 49.7928C38.2073 49.8956 38.2223 50.0024 38.2234 50.1102C38.2254 50.3153 38.2277 50.5206 38.2218 50.7256C38.2194 50.8125 38.2056 50.9014 38.1814 50.985C38.1314 51.1581 38.0136 51.2707 37.8376 51.3086C37.7432 51.329 37.6447 51.3348 37.5477 51.337C37.3434 51.3416 37.1389 51.3392 36.9344 51.3404C36.8467 51.3409 36.7589 51.3391 36.6716 51.3457C36.5944 51.3517 36.5158 51.3604 36.4414 51.3809C36.2355 51.4377 36.1032 51.5716 36.0655 51.7846C36.0435 51.9093 36.034 52.0365 36.0263 52.1631C36.0198 52.2702 36.0237 52.3779 36.0237 52.4853C36.0237 53.9803 36.0237 55.4752 36.0233 56.97C36.0233 57.1068 36.0231 57.2436 36.0173 57.3803C36.0143 57.448 36.0067 57.5177 35.9874 57.5824C35.9397 57.7426 35.8362 57.853 35.6728 57.9002C35.5692 57.9301 35.463 57.9456 35.3555 57.9462C35.0343 57.9479 34.7129 57.9488 34.3917 57.9466ZM40.0919 57.9479C39.9711 57.9479 39.8623 57.9237 39.7414 57.8994C39.5843 57.8509 39.4634 57.7539 39.4393 57.5841C39.403 57.4507 39.3909 57.3294 39.3788 57.2082V56.9414V50.4654C39.3788 50.2471 39.3909 50.0288 39.4272 49.8227C39.4513 49.7135 39.5118 49.6286 39.6085 49.568C39.6447 49.5316 39.6931 49.5074 39.7414 49.5074C39.826 49.4831 39.9106 49.4588 39.9952 49.4588H41.1314C41.216 49.4588 41.3127 49.4831 41.3973 49.5074C41.5544 49.5437 41.6632 49.6529 41.7115 49.8227C41.7357 49.9076 41.7478 50.0046 41.7478 50.1016C41.7599 50.1986 41.7599 50.2956 41.7599 50.3926V52.0056C41.7599 52.139 41.7598 52.2602 41.7719 52.3936C41.784 52.5028 41.8324 52.5998 41.9049 52.6847C41.9895 52.7817 42.0862 52.8424 42.2312 52.8545C42.3037 52.8666 42.3763 52.8666 42.4609 52.8666H43.6574C43.742 52.8666 43.8266 52.8666 43.9233 52.8545C44.153 52.8181 44.3101 52.6726 44.3584 52.4422C44.3705 52.3694 44.3826 52.3088 44.3826 52.236V51.8843V50.3078C44.3826 50.1986 44.3947 50.0895 44.3947 49.9803C44.4068 49.6771 44.6122 49.4831 44.8902 49.471C44.9507 49.471 45.0111 49.4588 45.0715 49.4588H46.0264C46.1231 49.4588 46.2197 49.471 46.3164 49.4831C46.5582 49.5316 46.6911 49.6893 46.7274 49.9318C46.7395 50.0288 46.7395 50.138 46.7395 50.2471V51.6296V53.6791V56.9656C46.7395 57.099 46.7395 57.2324 46.7274 57.3658C46.7274 57.4507 46.7153 57.5235 46.6911 57.5962C46.6428 57.7539 46.5461 57.8509 46.389 57.8994C46.2681 57.9237 46.1472 57.9479 46.0143 57.9479H45.1078C45.0111 57.9479 44.9023 57.9237 44.7935 57.9116C44.5639 57.863 44.431 57.7296 44.4068 57.4992C44.3947 57.4143 44.3947 57.3416 44.3947 57.2567C44.3826 57.1112 44.3826 56.9535 44.3826 56.7958V55.5952C44.3826 55.4497 44.3826 55.3042 44.3343 55.1587C44.298 55.0131 44.2134 54.9161 44.0925 54.8434C44.0321 54.8191 43.9596 54.807 43.8991 54.7948C43.8266 54.7827 43.7541 54.7827 43.6937 54.7827H42.4367C42.3521 54.7827 42.2554 54.7827 42.1708 54.7948C41.9653 54.8312 41.8445 54.9525 41.7961 55.1587C41.7719 55.2193 41.7719 55.2921 41.7599 55.3527V55.6801V57.0626C41.7599 57.1597 41.7478 57.2567 41.7478 57.3537C41.7478 57.4507 41.7236 57.5477 41.6873 57.6326C41.6511 57.766 41.5544 57.8509 41.4335 57.8873C41.3006 57.9237 41.1797 57.9479 41.0588 57.9479H40.0919ZM51.7641 58.1056C51.4861 58.0813 51.2202 58.0449 50.9543 57.9964C50.4588 57.9115 50.0116 57.7296 49.6006 57.4628C49.1172 57.1597 48.7546 56.7473 48.4887 56.238C48.2469 55.7893 48.114 55.3163 48.0294 54.8191C47.969 54.4553 47.9569 54.0793 47.9569 53.7034V53.3274C47.969 52.8424 48.0656 52.3694 48.1986 51.9086C48.3316 51.472 48.537 51.0718 48.815 50.708C49.0567 50.3805 49.3468 50.1137 49.6852 49.8833C50.2654 49.5195 50.8939 49.3133 51.5828 49.2891H52.1388C52.7189 49.3133 53.287 49.4346 53.8188 49.665C54.3869 49.9076 54.8582 50.2956 55.2087 50.805C55.5109 51.2537 55.7043 51.763 55.8131 52.2966C55.946 52.9151 55.9823 53.5579 55.9339 54.1885C55.8735 54.904 55.7164 55.5831 55.3659 56.2137C54.8824 57.1111 54.1451 57.7054 53.154 57.9601C52.8519 58.045 52.5376 58.0935 52.2355 58.1056C52.0783 58.1177 51.9212 58.1177 51.7641 58.1056ZM51.5949 56.3229C51.9575 56.4199 52.2959 56.3835 52.6101 56.1652C52.7189 56.0925 52.8156 55.9954 52.9002 55.8863C52.9969 55.7529 53.0815 55.6074 53.154 55.4497C53.2991 55.1102 53.3837 54.7463 53.4199 54.3704L53.4562 53.9338C53.4683 53.8125 53.4683 53.6791 53.4683 53.5579C53.4441 53.2062 53.4199 52.8545 53.3474 52.5028C53.2991 52.2481 53.2145 51.9934 53.0815 51.763C53.009 51.6054 52.9123 51.472 52.7914 51.3628C52.586 51.1809 52.3563 51.0596 52.0904 51.0233C51.7158 50.9748 51.3894 51.0839 51.1235 51.3507C50.918 51.5447 50.7851 51.7752 50.6884 52.042C50.6038 52.2724 50.5313 52.527 50.495 52.7696C50.4588 53.0728 50.4225 53.376 50.4346 53.667C50.4225 53.9581 50.4467 54.2249 50.4829 54.5038C50.5071 54.7585 50.5675 55.001 50.6401 55.2436C50.7005 55.4376 50.7851 55.6074 50.8939 55.7772C51.0752 56.0318 51.2927 56.2259 51.5949 56.3229ZM57.9007 57.9479C57.804 57.9479 57.7073 57.9237 57.6106 57.9116L57.4656 57.8752C57.3447 57.8267 57.2601 57.7296 57.2238 57.5962C57.1997 57.4992 57.1755 57.3901 57.1755 57.2809V56.9535V53.7034V50.4533V50.138C57.1755 50.138 57.1997 49.9197 57.2238 49.8105C57.2722 49.6408 57.3931 49.5316 57.5623 49.4952C57.6106 49.4831 57.659 49.471 57.7073 49.471C57.7919 49.471 57.8644 49.4588 57.949 49.4588H58.9643C59.061 49.4588 59.1577 49.471 59.2544 49.471C59.5082 49.5074 59.7016 49.6286 59.8224 49.8469C59.8587 49.9318 59.8949 50.0046 59.9312 50.0895C60.2092 50.7201 60.4751 51.3628 60.7531 51.9934C60.9223 52.3815 61.0915 52.7696 61.2607 53.1455C61.3091 53.2668 61.3695 53.376 61.4299 53.4851C61.4783 53.57 61.5266 53.6306 61.5991 53.6791C61.6716 53.7276 61.7683 53.7034 61.8046 53.6428C61.8288 53.6064 61.8409 53.57 61.853 53.5336C61.8892 53.4366 61.9013 53.3274 61.9013 53.2183C61.9134 53 61.9134 52.7817 61.9134 52.5756V50.4654V50.1744C61.9255 50.0531 61.9376 49.9318 61.9617 49.8227C61.998 49.6529 62.1068 49.5559 62.276 49.5074C62.3606 49.4831 62.4452 49.471 62.5298 49.471C62.832 49.4588 63.1341 49.4588 63.4363 49.471C63.5209 49.471 63.6176 49.4831 63.7022 49.5074C63.8593 49.5559 63.9681 49.665 64.0043 49.8348C64.0285 49.9439 64.0406 50.0652 64.0406 50.1744C64.0527 50.2714 64.0527 50.3684 64.0527 50.4775V56.9171C64.0527 57.0263 64.0527 57.1354 64.0406 57.2324C64.0406 57.3658 64.0285 57.4871 63.9923 57.6084C63.9439 57.7418 63.8593 57.8267 63.7384 57.8752C63.6297 57.9237 63.533 57.9358 63.4242 57.9358C62.977 57.9479 62.5298 57.9479 62.0826 57.9358C62.0101 57.9358 61.9496 57.9237 61.8771 57.9116C61.6717 57.8752 61.5145 57.766 61.4058 57.5962C61.3574 57.5113 61.3211 57.4386 61.2849 57.3537C61.1882 57.1475 61.0915 56.9292 60.9948 56.7231C60.8135 56.3108 60.6322 55.8984 60.4388 55.4861C60.3301 55.2314 60.2092 54.9768 60.1004 54.7221C60.0279 54.5644 59.9554 54.4189 59.8829 54.2612C59.8224 54.14 59.7378 54.0308 59.6411 53.9338C59.5807 53.8732 59.4719 53.8853 59.4115 53.9581C59.3631 54.0308 59.3511 54.1036 59.339 54.1764C59.3148 54.4189 59.2785 54.6614 59.2906 54.904V55.7044C59.2785 56.1895 59.2906 56.6746 59.2785 57.1597C59.2785 57.2809 59.2785 57.4022 59.2665 57.5114C59.2423 57.7054 59.1093 57.863 58.9159 57.8994C58.8193 57.9237 58.7105 57.9358 58.6017 57.9479H57.9007Z" fill="#136DBB"/>
<path d="M17.8687 65.0578C17.6996 65.0397 17.5305 65.0336 17.3614 64.9972C17.15 64.9548 16.9506 64.8821 16.7634 64.767C16.4977 64.6094 16.2983 64.3912 16.1534 64.1125C16.0568 63.9367 15.9964 63.7488 15.9601 63.5489C15.9118 63.3246 15.8876 63.0943 15.8937 62.8762C15.8876 62.6519 15.9118 62.4398 15.9541 62.2277C16.0145 61.9308 16.1232 61.6581 16.2923 61.4096C16.4252 61.2157 16.5883 61.0581 16.7815 60.9369C16.9688 60.8157 17.1741 60.7369 17.3915 60.6945C17.5546 60.6581 17.7177 60.64 17.8808 60.646C17.917 60.6521 17.9533 60.6521 17.9834 60.6521C18.213 60.6824 18.4364 60.7248 18.6539 60.7975C18.6901 60.8096 18.7263 60.8278 18.7626 60.8399C18.7988 60.8521 18.829 60.8763 18.8592 60.9066C18.9075 60.9551 18.9317 61.0096 18.9196 61.0763C18.9136 61.1187 18.9075 61.1672 18.8894 61.2036C18.8532 61.3066 18.8109 61.4035 18.7747 61.5066C18.7686 61.5126 18.7686 61.5247 18.7626 61.5308C18.6961 61.652 18.6176 61.6823 18.4968 61.6581C18.4304 61.6459 18.364 61.6217 18.3036 61.5975C18.1888 61.555 18.068 61.5247 17.9472 61.5066C17.8687 61.4944 17.7841 61.5005 17.7056 61.5187C17.5365 61.5611 17.4097 61.6641 17.313 61.8096C17.2345 61.9308 17.1862 62.0702 17.156 62.2156C17.1379 62.2883 17.1318 62.3671 17.1198 62.4459C17.1077 62.5792 17.0896 62.7065 17.0956 62.8398C17.1077 63.0701 17.1258 63.3004 17.1922 63.5186C17.2224 63.6276 17.2587 63.7307 17.313 63.8337C17.3674 63.9185 17.4338 63.9973 17.5123 64.064C17.609 64.1367 17.7177 64.1791 17.8385 64.1912C17.9593 64.1973 18.0801 64.1973 18.2009 64.167C18.2734 64.1428 18.3458 64.1246 18.4244 64.1003C18.4666 64.0882 18.5029 64.07 18.5452 64.064C18.5754 64.0518 18.6055 64.0518 18.6357 64.0518C18.6841 64.0518 18.7263 64.07 18.7686 64.1064C18.7928 64.1306 18.8169 64.1609 18.8351 64.1973C18.8894 64.3124 18.9317 64.4336 18.9679 64.5548C18.9861 64.5973 18.9921 64.6457 18.9861 64.6942C18.9861 64.7427 18.9679 64.7791 18.9317 64.8154C18.9075 64.8397 18.8834 64.8579 18.8532 64.87C18.8049 64.8882 18.7626 64.9124 18.7143 64.9245C18.4666 64.9912 18.213 65.0397 17.9533 65.0578H17.8687ZM21.2967 65.0518C21.1578 65.0397 21.0249 65.0215 20.8921 64.9972C20.6444 64.9548 20.421 64.8639 20.2156 64.7306C19.974 64.5791 19.7928 64.373 19.6599 64.1185C19.5392 63.8943 19.4727 63.6579 19.4304 63.4095C19.4002 63.2277 19.3942 63.0398 19.3942 62.8519V62.6641C19.4002 62.4217 19.4486 62.1853 19.515 61.955C19.5814 61.7369 19.6841 61.5369 19.823 61.3551C19.9438 61.1914 20.0888 61.0581 20.2579 60.943C20.5478 60.7612 20.8619 60.6581 21.2061 60.646H21.484C21.7739 60.6581 22.0577 60.7187 22.3235 60.8339C22.6074 60.9551 22.8429 61.149 23.0181 61.4035C23.1691 61.6278 23.2657 61.8823 23.3201 62.1489C23.3865 62.458 23.4046 62.7792 23.3805 63.0943C23.3503 63.4519 23.2717 63.7913 23.0966 64.1064C22.855 64.5548 22.4866 64.8518 21.9913 64.9791C21.8403 65.0215 21.6833 65.0457 21.5323 65.0518C21.4538 65.0578 21.3752 65.0578 21.2967 65.0518ZM21.2122 64.1609C21.3934 64.2094 21.5625 64.1912 21.7195 64.0822C21.7739 64.0458 21.8222 63.9973 21.8645 63.9428C21.9128 63.8761 21.9551 63.8034 21.9913 63.7246C22.0638 63.5549 22.1061 63.3731 22.1242 63.1852L22.1423 62.9671C22.1483 62.9065 22.1483 62.8398 22.1483 62.7792C22.1363 62.6035 22.1242 62.4277 22.0879 62.252C22.0638 62.1247 22.0215 61.9974 21.9551 61.8823C21.9188 61.8035 21.8705 61.7369 21.8101 61.6823C21.7074 61.5914 21.5927 61.5308 21.4598 61.5126C21.2726 61.4884 21.1095 61.5429 20.9766 61.6762C20.8739 61.7732 20.8075 61.8884 20.7592 62.0217C20.7169 62.1368 20.6807 62.2641 20.6626 62.3853C20.6444 62.5368 20.6263 62.6883 20.6324 62.8337C20.6263 62.9792 20.6384 63.1125 20.6565 63.2519C20.6686 63.3792 20.6988 63.5004 20.735 63.6216C20.7652 63.7185 20.8075 63.8034 20.8619 63.8882C20.9525 64.0155 21.0612 64.1125 21.2122 64.1609ZM24.4237 64.973C24.3452 64.973 24.2727 64.973 24.1942 64.9548C24.1519 64.9427 24.1096 64.9245 24.0794 64.8942C24.0432 64.8579 24.019 64.8154 24.013 64.767C24.0069 64.7306 24.0009 64.7003 24.0009 64.6639V64.4882V62.8459V61.2096V61.0157C24.0069 60.9793 24.0069 60.9369 24.019 60.9005C24.0371 60.8339 24.0855 60.7793 24.1519 60.7551C24.1821 60.749 24.2183 60.743 24.2485 60.7369C24.2969 60.7309 24.3391 60.7309 24.3814 60.7309H25.535C25.8068 60.7309 26.0665 60.7733 26.3262 60.846C26.6161 60.9248 26.8698 61.0581 27.0872 61.2642C27.2443 61.4157 27.3651 61.5914 27.4496 61.7914C27.5402 61.9914 27.5946 62.2095 27.6187 62.4277C27.6429 62.5732 27.661 62.7186 27.655 62.864C27.6489 63.0762 27.6248 63.2822 27.5765 63.4883C27.51 63.761 27.3953 64.0155 27.2262 64.2337C27.0752 64.4336 26.894 64.5912 26.6765 64.7124C26.4108 64.8579 26.1269 64.9306 25.8249 64.9548C25.6256 64.973 25.4263 64.973 25.227 64.973H24.4237ZM25.4263 64.1185C25.4746 64.1246 25.5229 64.1185 25.5712 64.1064C25.9155 64.0397 26.1571 63.8397 26.3021 63.5186C26.3866 63.3489 26.4229 63.161 26.4349 62.9671V62.6762C26.4289 62.5307 26.4047 62.3853 26.3625 62.2459C26.3323 62.1308 26.2839 62.0277 26.2175 61.9308C26.1571 61.8459 26.0907 61.7793 26.0061 61.7247C25.8732 61.6338 25.7162 61.5853 25.5531 61.5793C25.5048 61.5732 25.4505 61.5793 25.3961 61.5853C25.3478 61.5853 25.3055 61.6096 25.2693 61.6459C25.2209 61.6884 25.1907 61.749 25.1847 61.8096C25.1787 61.8762 25.1787 61.9368 25.1726 62.0035V62.8519V63.361C25.1726 63.4883 25.1726 63.6155 25.1787 63.7428C25.1787 63.7913 25.1787 63.8397 25.1847 63.8882C25.2028 64.0276 25.2874 64.1064 25.4263 64.1185ZM28.7103 64.973C28.6197 64.973 28.5351 64.973 28.4506 64.9488C28.4023 64.9366 28.366 64.9185 28.3358 64.8882C28.3056 64.8518 28.2815 64.8154 28.2754 64.773C28.2694 64.7367 28.2633 64.7064 28.2633 64.67V64.4942V62.8519V61.1854C28.2633 61.1248 28.2633 61.0581 28.2694 60.9975C28.2694 60.9551 28.2754 60.9187 28.2875 60.8824C28.3117 60.8218 28.3479 60.7793 28.4083 60.7612C28.4566 60.743 28.5049 60.7369 28.5532 60.7369C28.6076 60.7309 28.662 60.7309 28.7103 60.7309H30.7578C30.8061 60.7309 30.8605 60.7309 30.9148 60.7369C30.9571 60.7369 30.9933 60.743 31.0296 60.7551C31.1141 60.7733 31.1624 60.8339 31.1806 60.9127C31.1866 60.943 31.1926 60.9733 31.1926 61.0036V61.3975C31.1926 61.4217 31.1866 61.446 31.1866 61.4702C31.1685 61.5732 31.096 61.6459 30.9933 61.6581C30.9571 61.6641 30.9208 61.6702 30.8906 61.6702H30.7155H29.9122C29.8578 61.6702 29.8035 61.6702 29.7491 61.6762C29.7008 61.6762 29.6525 61.6823 29.6102 61.7005C29.5377 61.7247 29.4955 61.7732 29.4653 61.8399C29.4653 61.852 29.4592 61.8641 29.4532 61.8823C29.4351 61.9853 29.4351 62.0944 29.4471 62.2035L29.4653 62.258C29.4955 62.3489 29.5559 62.4035 29.6525 62.4217C29.7008 62.4338 29.7491 62.4338 29.7974 62.4338H30.1478C30.2202 62.4338 30.2927 62.4398 30.3652 62.452C30.3893 62.458 30.4135 62.458 30.4377 62.4701C30.4981 62.4883 30.5464 62.5307 30.5645 62.5974C30.5826 62.6459 30.5947 62.7004 30.5947 62.755V63.0762C30.5947 63.1246 30.5826 63.1731 30.5705 63.2216C30.5464 63.2943 30.4981 63.3367 30.4256 63.3549C30.4075 63.367 30.3833 63.367 30.3591 63.3731C30.2625 63.3792 30.1659 63.3913 30.0632 63.3913C29.9726 63.3852 29.882 63.3852 29.7914 63.3913C29.7431 63.3913 29.7008 63.3913 29.6585 63.3973C29.5619 63.4095 29.5015 63.4701 29.4653 63.561C29.429 63.6519 29.429 63.7488 29.4653 63.8458C29.5015 63.9428 29.5619 64.0034 29.6706 64.0094C29.8095 64.0215 29.9484 64.0276 30.0874 64.0337H30.788C30.8544 64.0337 30.9148 64.0337 30.9812 64.0397C31.0175 64.0458 31.0537 64.0518 31.09 64.0761C31.1443 64.1185 31.1806 64.167 31.1866 64.2337C31.1926 64.2579 31.1926 64.2821 31.1926 64.3064V64.6882C31.1926 64.7185 31.1866 64.7548 31.1806 64.7912C31.1624 64.87 31.1141 64.9185 31.0416 64.9427C30.9873 64.9609 30.939 64.9669 30.8846 64.9669C30.8423 64.973 30.794 64.973 30.7517 64.973H28.7103ZM35.4089 64.9726C35.2872 64.9726 35.1656 64.9726 35.044 64.9725C34.9806 64.9725 34.9179 64.9667 34.8554 64.9554C34.7451 64.9354 34.67 64.8731 34.6298 64.7694C34.6087 64.715 34.5917 64.6588 34.5743 64.603C34.5468 64.5145 34.5217 64.4252 34.493 64.3371C34.481 64.3002 34.4667 64.2628 34.4465 64.2301C34.3781 64.1196 34.3041 64.1205 34.2356 64.2279C34.2149 64.2604 34.2004 64.2977 34.1883 64.3346C34.158 64.4273 34.1313 64.5212 34.1018 64.6142C34.0841 64.67 34.0663 64.7258 34.0445 64.78C34.005 64.8784 33.9307 64.937 33.8267 64.9541C33.7693 64.9635 33.7109 64.971 33.6528 64.9715C33.4291 64.9735 33.2053 64.9724 32.9815 64.972C32.9181 64.972 32.8554 64.9649 32.7934 64.9504C32.7014 64.929 32.6369 64.8746 32.5989 64.7889C32.5831 64.7534 32.5699 64.7165 32.5582 64.6793C32.542 64.6282 32.5277 64.5763 32.5137 64.5245C32.3738 64.0063 32.2344 63.4879 32.0944 62.9696C31.9837 62.5598 31.8725 62.1501 31.7612 61.7403C31.7101 61.552 31.6581 61.3638 31.6071 61.1754C31.5956 61.133 31.5857 61.0902 31.5762 61.0473C31.5655 60.9993 31.5634 60.9507 31.5674 60.9017C31.5733 60.8309 31.6114 60.7837 31.6763 60.7598C31.7079 60.7481 31.742 60.7415 31.7755 60.7369C31.8091 60.7323 31.8434 60.7319 31.8774 60.7319C32.0477 60.7314 32.2179 60.7312 32.3882 60.7321C32.4319 60.7323 32.4759 60.7347 32.5192 60.7402C32.636 60.7548 32.7167 60.8178 32.7566 60.9294C32.773 60.9753 32.7864 61.0224 32.7977 61.0698C32.818 61.1552 32.8361 61.2412 32.8545 61.3271C32.9804 61.9141 33.1061 62.501 33.2314 63.088C33.2488 63.1695 33.2732 63.2486 33.3031 63.3261C33.3155 63.3581 33.3324 63.3874 33.358 63.4114C33.3834 63.4352 33.4247 63.4384 33.4516 63.4175C33.4832 63.3929 33.507 63.3622 33.5195 63.3243C33.5394 63.2641 33.561 63.2042 33.5753 63.1426C33.6173 62.962 33.6564 62.7807 33.696 62.5995C33.7188 62.4946 33.7413 62.3896 33.7626 62.2844C33.778 62.2078 33.7927 62.1311 33.8048 62.054C33.8216 61.9469 33.8193 61.8397 33.7937 61.7341C33.773 61.6487 33.7502 61.5638 33.7278 61.4789C33.6943 61.3515 33.6604 61.2242 33.6266 61.0968C33.6102 61.035 33.6026 60.9724 33.6065 60.9084C33.6112 60.8312 33.6526 60.7821 33.7219 60.7546C33.7398 60.7475 33.7592 60.7435 33.7782 60.7401C33.7974 60.7367 33.8169 60.7341 33.8363 60.7341C34.0503 60.7335 34.2643 60.7331 34.4784 60.7336C34.5272 60.7336 34.5751 60.7426 34.6221 60.7563C34.6968 60.7781 34.7493 60.8258 34.7827 60.8951C34.8083 60.9482 34.8229 61.005 34.8351 61.0624C34.8717 61.2343 34.9082 61.4061 34.9452 61.5779C35.0437 62.0359 35.1427 62.4938 35.241 62.9519C35.2574 63.0285 35.2789 63.1034 35.3064 63.1766C35.3222 63.2188 35.3475 63.2537 35.3862 63.2781C35.4052 63.2902 35.4368 63.2892 35.4551 63.2765C35.4841 63.2563 35.5034 63.2286 35.5177 63.1972C35.5502 63.1258 35.5713 63.0506 35.5892 62.9745C35.6094 62.889 35.6286 62.8033 35.6469 62.7174C35.7203 62.3738 35.7927 62.0299 35.8664 61.6864C35.9115 61.4764 35.9573 61.2666 36.0048 61.0572C36.0166 61.0051 36.0322 60.9531 36.0526 60.9039C36.0865 60.8222 36.1483 60.7707 36.2356 60.7509C36.2881 60.739 36.341 60.7323 36.3947 60.7322C36.5795 60.7319 36.7644 60.7318 36.9492 60.7326C36.9832 60.7327 37.0173 60.736 37.051 60.7407C37.0749 60.7441 37.099 60.7501 37.1214 60.759C37.1854 60.7843 37.2247 60.8301 37.2306 60.901C37.236 60.965 37.2288 61.0276 37.2122 61.0895C37.1716 61.2403 37.1322 61.3914 37.0915 61.5422C37.0458 61.7118 36.9989 61.8811 36.953 62.0507C36.8701 62.3569 36.7878 62.6631 36.705 62.9694C36.6031 63.3463 36.5008 63.723 36.399 64.0998C36.3532 64.2695 36.3087 64.4394 36.2624 64.6089C36.2496 64.6559 36.2336 64.7021 36.2177 64.7482C36.1733 64.8767 36.0825 64.9474 35.9483 64.9613C35.8951 64.9668 35.8417 64.9714 35.7883 64.9721C35.6618 64.9737 35.5353 64.9726 35.4089 64.9726ZM37.8754 64.973C37.8271 64.973 37.7787 64.9669 37.7304 64.9548C37.7063 64.9548 37.6821 64.9488 37.6579 64.9366C37.5975 64.9124 37.5613 64.8639 37.5553 64.7912C37.5553 64.7609 37.5553 64.7245 37.5673 64.6882C37.5794 64.6276 37.5975 64.567 37.6157 64.5064C37.7908 63.9912 37.9599 63.4701 38.129 62.9489C38.28 62.5004 38.425 62.052 38.57 61.6035C38.6304 61.4278 38.6847 61.252 38.7451 61.0763C38.7632 61.0217 38.7813 60.9733 38.8055 60.9248C38.8538 60.8096 38.9444 60.7551 39.0652 60.7369C39.1075 60.7309 39.1498 60.7309 39.1981 60.7309H39.488H40.0557C40.1101 60.7309 40.1645 60.7369 40.2188 60.743C40.3215 60.7551 40.4 60.8096 40.4483 60.9005C40.4725 60.9551 40.4966 61.0036 40.5148 61.0642C40.5812 61.246 40.6356 61.4338 40.696 61.6156C40.7624 61.8096 40.8228 61.9974 40.8832 62.1853C41.0161 62.5974 41.155 63.0034 41.2879 63.4095C41.4087 63.7791 41.5295 64.1549 41.6502 64.5245C41.6684 64.573 41.6804 64.6276 41.6925 64.6821C41.7046 64.7124 41.7046 64.7488 41.7106 64.7791C41.7106 64.8518 41.6684 64.9124 41.6019 64.9366C41.5476 64.9609 41.4993 64.9669 41.4449 64.9669C41.3785 64.973 41.3181 64.973 41.2516 64.973H41.1369H40.9013C40.853 64.9669 40.7986 64.9609 40.7443 64.9548C40.6295 64.9366 40.551 64.87 40.5087 64.7609C40.4906 64.7185 40.4725 64.67 40.4604 64.6276C40.4423 64.573 40.4242 64.5245 40.4061 64.4761C40.3517 64.3488 40.2611 64.27 40.1222 64.2579C40.0739 64.2518 40.0316 64.2518 39.9893 64.2518H39.2887C39.2222 64.2518 39.1619 64.2518 39.1015 64.264C38.9988 64.2821 38.9323 64.3367 38.884 64.4215C38.8478 64.4821 38.8297 64.5488 38.8055 64.6154C38.7934 64.6639 38.7753 64.7185 38.7572 64.767C38.7391 64.8033 38.7209 64.8336 38.6907 64.8639C38.6545 64.9063 38.6062 64.9366 38.5458 64.9488C38.4854 64.9669 38.419 64.973 38.3586 64.973H37.8754ZM39.6148 63.4034C39.6813 63.3973 39.7356 63.3973 39.79 63.3973C39.8323 63.3913 39.8745 63.3852 39.9168 63.367C39.9772 63.3367 40.0195 63.2943 40.0255 63.2216C40.0316 63.161 40.0195 63.0943 40.0074 63.0337L39.9349 62.7792C39.8927 62.6338 39.8504 62.4944 39.8081 62.3489C39.796 62.3005 39.7779 62.252 39.7598 62.2095C39.7477 62.1853 39.7296 62.1611 39.7115 62.1368C39.6571 62.0762 39.5967 62.0762 39.5484 62.1368C39.5303 62.1671 39.5122 62.1974 39.5001 62.2277C39.4759 62.2762 39.4578 62.3247 39.4457 62.3792C39.3853 62.5913 39.3249 62.7974 39.2645 63.0095C39.2585 63.0459 39.2464 63.0762 39.2464 63.1125C39.2404 63.1428 39.2404 63.1792 39.2404 63.2095C39.2404 63.258 39.2645 63.2943 39.2947 63.3246C39.337 63.367 39.3853 63.3852 39.4397 63.3913C39.5001 63.3973 39.5665 63.3973 39.6148 63.4034ZM45.5624 65.0578C45.3147 65.0397 45.0792 64.9851 44.8618 64.8639C44.5356 64.6882 44.3001 64.4336 44.1611 64.0882C44.1309 64.0215 44.1068 63.9549 44.0826 63.8822C44.0645 63.8397 44.0464 63.7913 44.0283 63.7488C43.986 63.6701 43.9196 63.6216 43.829 63.6095C43.7927 63.6095 43.7504 63.6034 43.7142 63.6095C43.6055 63.6216 43.5149 63.7064 43.4968 63.8155C43.4907 63.8458 43.4847 63.8822 43.4847 63.9185V64.0943V64.5912C43.4786 64.6579 43.4786 64.7185 43.4605 64.7791C43.4545 64.8033 43.4484 64.8276 43.4364 64.8518C43.4122 64.9003 43.3699 64.9306 43.3156 64.9488C43.2552 64.9669 43.1948 64.973 43.1283 64.973H42.6452C42.5908 64.973 42.5304 64.9669 42.476 64.9488C42.3915 64.9245 42.3371 64.87 42.319 64.7912C42.3069 64.7245 42.3009 64.6639 42.2948 64.6033V64.4397V62.8398V61.2278C42.2948 61.143 42.2948 61.052 42.313 60.9672C42.319 60.9369 42.319 60.9066 42.3311 60.8824C42.3552 60.8157 42.3975 60.7733 42.464 60.7551C42.5002 60.743 42.5425 60.7369 42.5787 60.7369C42.621 60.7309 42.6572 60.7309 42.6995 60.7309H43.8954C44.0887 60.7309 44.2819 60.7551 44.4752 60.7915C44.6141 60.8157 44.753 60.8581 44.8799 60.9127C44.9463 60.9369 45.0067 60.9672 45.0671 60.9975C45.2423 61.0824 45.3812 61.2096 45.4959 61.3611C45.6107 61.5066 45.6711 61.6702 45.7013 61.8459C45.7134 61.9005 45.7194 61.9611 45.7255 62.0156C45.7255 62.052 45.7315 62.0883 45.7255 62.1186C45.7134 62.2823 45.6892 62.4398 45.6409 62.5974C45.5805 62.7671 45.4839 62.9186 45.351 63.0459C45.2906 63.1065 45.2241 63.1549 45.1638 63.2095C45.1396 63.2337 45.1094 63.258 45.0852 63.2822C44.9946 63.3731 44.9765 63.4822 45.0188 63.6034C45.0611 63.7125 45.1396 63.7913 45.2362 63.8519C45.3329 63.9064 45.4295 63.9428 45.5382 63.9731C45.5865 63.9852 45.6409 63.9973 45.6953 64.0094C45.8342 64.0397 45.8946 64.1246 45.9066 64.264C45.9127 64.2882 45.9127 64.3124 45.9127 64.3367V64.7367C45.9127 64.7791 45.9066 64.8215 45.9006 64.8639C45.8825 64.9488 45.8281 65.0033 45.7496 65.0336C45.6892 65.0518 45.6228 65.0639 45.5624 65.0578ZM43.7384 62.8095C43.8833 62.8156 44.0222 62.7853 44.1491 62.7186C44.2578 62.658 44.3423 62.5732 44.4088 62.4701C44.4209 62.4398 44.4329 62.4156 44.445 62.3853C44.5417 62.0883 44.4148 61.7793 44.1249 61.6581C44.0705 61.6338 44.0101 61.6156 43.9498 61.5975C43.8652 61.5793 43.7867 61.5732 43.7021 61.5853C43.5994 61.5975 43.533 61.652 43.5028 61.755C43.4907 61.7975 43.4847 61.8459 43.4847 61.9005V62.1914V62.4823C43.4847 62.5247 43.4847 62.561 43.4968 62.5974C43.5149 62.7004 43.5994 62.8095 43.7384 62.8095ZM49.7221 65.0578C49.4745 65.0397 49.239 64.9851 49.0215 64.8639C48.6954 64.6882 48.4598 64.4336 48.3209 64.0882C48.2907 64.0215 48.2665 63.9549 48.2424 63.8822C48.2243 63.8397 48.2061 63.7913 48.188 63.7488C48.1458 63.6701 48.0793 63.6216 47.9887 63.6095C47.9525 63.6095 47.9102 63.6034 47.874 63.6095C47.7652 63.6216 47.6746 63.7064 47.6565 63.8155C47.6505 63.8458 47.6444 63.8822 47.6444 63.9185V64.0943V64.5912C47.6384 64.6579 47.6384 64.7185 47.6203 64.7791C47.6142 64.8033 47.6082 64.8276 47.5961 64.8518C47.572 64.9003 47.5297 64.9306 47.4753 64.9488C47.4149 64.9669 47.3545 64.973 47.2881 64.973H46.8049C46.7506 64.973 46.6902 64.9669 46.6358 64.9488C46.5512 64.9245 46.4969 64.87 46.4788 64.7912C46.4667 64.7245 46.4606 64.6639 46.4546 64.6033V64.4397V62.8398V61.2278C46.4546 61.143 46.4546 61.052 46.4727 60.9672C46.4788 60.9369 46.4788 60.9066 46.4908 60.8824C46.515 60.8157 46.5573 60.7733 46.6237 60.7551C46.66 60.743 46.7022 60.7369 46.7385 60.7369C46.7808 60.7309 46.817 60.7309 46.8593 60.7309H48.0552C48.2484 60.7309 48.4417 60.7551 48.635 60.7915C48.7739 60.8157 48.9128 60.8581 49.0396 60.9127C49.1061 60.9369 49.1665 60.9672 49.2269 60.9975C49.402 61.0824 49.5409 61.2096 49.6557 61.3611C49.7705 61.5066 49.8309 61.6702 49.8611 61.8459C49.8731 61.9005 49.8792 61.9611 49.8852 62.0156C49.8852 62.052 49.8913 62.0883 49.8852 62.1186C49.8731 62.2823 49.849 62.4398 49.8007 62.5974C49.7403 62.7671 49.6436 62.9186 49.5107 63.0459C49.4503 63.1065 49.3839 63.1549 49.3235 63.2095C49.2994 63.2337 49.2692 63.258 49.245 63.2822C49.1544 63.3731 49.1363 63.4822 49.1786 63.6034C49.2208 63.7125 49.2994 63.7913 49.396 63.8519C49.4926 63.9064 49.5893 63.9428 49.698 63.9731C49.7463 63.9852 49.8007 63.9973 49.855 64.0094C49.9939 64.0397 50.0543 64.1246 50.0664 64.264C50.0724 64.2882 50.0724 64.3124 50.0724 64.3367V64.7367C50.0724 64.7791 50.0664 64.8215 50.0604 64.8639C50.0422 64.9488 49.9879 65.0033 49.9094 65.0336C49.849 65.0518 49.7825 65.0639 49.7221 65.0578ZM47.8981 62.8095C48.0431 62.8156 48.182 62.7853 48.3088 62.7186C48.4175 62.658 48.5021 62.5732 48.5685 62.4701C48.5806 62.4398 48.5927 62.4156 48.6048 62.3853C48.7014 62.0883 48.5746 61.7793 48.2847 61.6581C48.2303 61.6338 48.1699 61.6156 48.1095 61.5975C48.025 61.5793 47.9464 61.5732 47.8619 61.5853C47.7592 61.5975 47.6928 61.652 47.6626 61.755C47.6505 61.7975 47.6444 61.8459 47.6444 61.9005V62.1914V62.4823C47.6444 62.5247 47.6444 62.561 47.6565 62.5974C47.6746 62.7004 47.7592 62.8095 47.8981 62.8095ZM50.9828 64.973C50.9345 64.973 50.8862 64.9609 50.8378 64.9548C50.8137 64.9548 50.7895 64.9488 50.7714 64.9366C50.711 64.9185 50.6687 64.876 50.6506 64.8154C50.6325 64.773 50.6204 64.7245 50.6204 64.6761C50.6144 64.6276 50.6144 64.5791 50.6144 64.5306V61.1611C50.6144 61.0945 50.6144 61.0217 50.6264 60.9551C50.6446 60.8278 50.7231 60.7551 50.8499 60.7369C50.8862 60.7369 50.9284 60.7309 50.9647 60.7309H51.4599C51.4901 60.7309 51.5203 60.7309 51.5505 60.7369C51.5747 60.743 51.6049 60.749 51.6351 60.7551C51.7076 60.7793 51.7559 60.8339 51.78 60.9066C51.7921 60.9611 51.7982 61.0157 51.7982 61.0702C51.7982 61.1187 51.8042 61.1733 51.8042 61.2278V62.8519V64.4821C51.8042 64.5367 51.7982 64.5851 51.7982 64.6397C51.7982 64.6942 51.7921 64.7488 51.774 64.8033C51.7559 64.8639 51.7136 64.9124 51.6532 64.9366C51.6291 64.9427 51.6049 64.9548 51.5807 64.9548C51.5324 64.9609 51.4841 64.973 51.4358 64.973H50.9828ZM54.3151 65.0518C54.1762 65.0397 54.0433 65.0215 53.9104 64.9972C53.6628 64.9548 53.4393 64.8639 53.234 64.7306C52.9924 64.5791 52.8112 64.373 52.6783 64.1185C52.5575 63.8943 52.4911 63.6579 52.4488 63.4095C52.4186 63.2277 52.4126 63.0398 52.4126 62.8519V62.6641C52.4186 62.4217 52.4669 62.1853 52.5334 61.955C52.5998 61.7369 52.7025 61.5369 52.8414 61.3551C52.9622 61.1914 53.1071 61.0581 53.2763 60.943C53.5662 60.7612 53.8802 60.6581 54.2245 60.646H54.5023C54.7922 60.6581 55.0761 60.7187 55.3419 60.8339C55.6257 60.9551 55.8613 61.149 56.0364 61.4035C56.1874 61.6278 56.2841 61.8823 56.3384 62.1489C56.4049 62.458 56.423 62.7792 56.3988 63.0943C56.3686 63.4519 56.2901 63.7913 56.115 64.1064C55.8734 64.5548 55.5049 64.8518 55.0097 64.9791C54.8587 65.0215 54.7016 65.0457 54.5507 65.0518C54.4721 65.0578 54.3936 65.0578 54.3151 65.0518ZM54.2305 64.1609C54.4117 64.2094 54.5809 64.1912 54.7379 64.0822C54.7922 64.0458 54.8406 63.9973 54.8828 63.9428C54.9312 63.8761 54.9734 63.8034 55.0097 63.7246C55.0822 63.5549 55.1244 63.3731 55.1426 63.1852L55.1607 62.9671C55.1667 62.9065 55.1667 62.8398 55.1667 62.7792C55.1546 62.6035 55.1426 62.4277 55.1063 62.252C55.0822 62.1247 55.0399 61.9974 54.9734 61.8823C54.9372 61.8035 54.8889 61.7369 54.8285 61.6823C54.7258 61.5914 54.6111 61.5308 54.4782 61.5126C54.2909 61.4884 54.1279 61.5429 53.995 61.6762C53.8923 61.7732 53.8259 61.8884 53.7776 62.0217C53.7353 62.1368 53.699 62.2641 53.6809 62.3853C53.6628 62.5368 53.6447 62.6883 53.6507 62.8337C53.6447 62.9792 53.6568 63.1125 53.6749 63.2519C53.687 63.3792 53.7172 63.5004 53.7534 63.6216C53.7836 63.7185 53.8259 63.8034 53.8802 63.8882C53.9708 64.0155 54.0796 64.1125 54.2305 64.1609ZM60.2868 65.0578C60.0392 65.0397 59.8036 64.9851 59.5862 64.8639C59.26 64.6882 59.0245 64.4336 58.8856 64.0882C58.8554 64.0215 58.8312 63.9549 58.807 63.8822C58.7889 63.8397 58.7708 63.7913 58.7527 63.7488C58.7104 63.6701 58.644 63.6216 58.5534 63.6095C58.5171 63.6095 58.4749 63.6034 58.4386 63.6095C58.3299 63.6216 58.2393 63.7064 58.2212 63.8155C58.2151 63.8458 58.2091 63.8822 58.2091 63.9185V64.0943V64.5912C58.2031 64.6579 58.2031 64.7185 58.185 64.7791C58.1789 64.8033 58.1729 64.8276 58.1608 64.8518C58.1366 64.9003 58.0944 64.9306 58.04 64.9488C57.9796 64.9669 57.9192 64.973 57.8528 64.973H57.3696C57.3152 64.973 57.2548 64.9669 57.2005 64.9488C57.1159 64.9245 57.0615 64.87 57.0434 64.7912C57.0313 64.7245 57.0253 64.6639 57.0193 64.6033V64.4397V62.8398V61.2278C57.0193 61.143 57.0193 61.052 57.0374 60.9672C57.0434 60.9369 57.0434 60.9066 57.0555 60.8824C57.0797 60.8157 57.1219 60.7733 57.1884 60.7551C57.2246 60.743 57.2669 60.7369 57.3031 60.7369C57.3454 60.7309 57.3817 60.7309 57.4239 60.7309H58.6198C58.8131 60.7309 59.0064 60.7551 59.1996 60.7915C59.3386 60.8157 59.4775 60.8581 59.6043 60.9127C59.6707 60.9369 59.7311 60.9672 59.7915 60.9975C59.9667 61.0824 60.1056 61.2096 60.2204 61.3611C60.3351 61.5066 60.3955 61.6702 60.4257 61.8459C60.4378 61.9005 60.4438 61.9611 60.4499 62.0156C60.4499 62.052 60.4559 62.0883 60.4499 62.1186C60.4378 62.2823 60.4136 62.4398 60.3653 62.5974C60.3049 62.7671 60.2083 62.9186 60.0754 63.0459C60.015 63.1065 59.9486 63.1549 59.8882 63.2095C59.864 63.2337 59.8338 63.258 59.8097 63.2822C59.7191 63.3731 59.7009 63.4822 59.7432 63.6034C59.7855 63.7125 59.864 63.7913 59.9606 63.8519C60.0573 63.9064 60.1539 63.9428 60.2626 63.9731C60.311 63.9852 60.3653 63.9973 60.4197 64.0094C60.5586 64.0397 60.619 64.1246 60.6311 64.264C60.6371 64.2882 60.6371 64.3124 60.6371 64.3367V64.7367C60.6371 64.7791 60.6311 64.8215 60.625 64.8639C60.6069 64.9488 60.5525 65.0033 60.474 65.0336C60.4136 65.0518 60.3472 65.0639 60.2868 65.0578ZM58.4628 62.8095C58.6077 62.8156 58.7467 62.7853 58.8735 62.7186C58.9822 62.658 59.0668 62.5732 59.1332 62.4701C59.1453 62.4398 59.1574 62.4156 59.1694 62.3853C59.2661 62.0883 59.1392 61.7793 58.8493 61.6581C58.795 61.6338 58.7346 61.6156 58.6742 61.5975C58.5896 61.5793 58.5111 61.5732 58.4265 61.5853C58.3239 61.5975 58.2574 61.652 58.2272 61.755C58.2151 61.7975 58.2091 61.8459 58.2091 61.9005V62.1914V62.4823C58.2091 62.5247 58.2091 62.561 58.2212 62.5974C58.2393 62.7004 58.3239 62.8095 58.4628 62.8095ZM62.1803 65.0573C62.0439 65.0615 61.9091 65.0407 61.7746 65.0212C61.6306 65.0002 61.4877 64.9701 61.3446 64.9428C61.2872 64.9319 61.2311 64.9159 61.1776 64.8919C61.1462 64.8779 61.1182 64.8592 61.0938 64.8346C61.0616 64.8022 61.0433 64.7638 61.0404 64.7179C61.0376 64.6737 61.0399 64.6301 61.0523 64.5875C61.085 64.4749 61.1259 64.3655 61.1801 64.2615C61.1891 64.2443 61.2001 64.2278 61.2123 64.2129C61.2578 64.1572 61.316 64.1263 61.3886 64.1234C61.4426 64.1213 61.495 64.1299 61.5473 64.1418C61.6231 64.1589 61.6986 64.1777 61.7749 64.1926C61.8464 64.2066 61.9185 64.2176 61.9906 64.2278C62.1171 64.2458 62.2426 64.2367 62.3672 64.2099C62.4292 64.1965 62.4885 64.1752 62.5457 64.1476C62.6174 64.1131 62.6758 64.0623 62.7243 64.0003C62.8118 63.8882 62.8098 63.7316 62.7192 63.622C62.6693 63.5617 62.6108 63.5108 62.5441 63.469C62.4532 63.4119 62.3567 63.3661 62.26 63.3204C62.1545 63.2705 62.049 63.2207 61.9439 63.1702C61.843 63.1217 61.7474 63.0638 61.653 63.0036C61.5374 62.9299 61.4329 62.8435 61.3396 62.7431C61.1494 62.5385 61.0492 62.2975 61.0431 62.0166C61.0387 61.8173 61.0843 61.6296 61.1662 61.4501C61.2425 61.2831 61.3573 61.1454 61.4999 61.0313C61.6774 60.8891 61.8803 60.7975 62.0979 60.7376C62.2152 60.7053 62.3343 60.6815 62.4556 60.6698C62.5474 60.661 62.6385 60.6463 62.7313 60.6461C62.9172 60.6456 63.099 60.6761 63.2793 60.7167C63.3551 60.7338 63.4298 60.7558 63.5041 60.7788C63.5504 60.7931 63.5951 60.8125 63.64 60.8311C63.6578 60.8384 63.6748 60.8485 63.691 60.8592C63.7956 60.9278 63.8311 61.016 63.7946 61.136C63.7691 61.2197 63.7354 61.301 63.7042 61.3829C63.6974 61.4009 63.6867 61.4178 63.676 61.4339C63.6196 61.5181 63.5427 61.5611 63.4402 61.5448C63.3875 61.5365 63.3352 61.5247 63.2836 61.5113C63.1752 61.4832 63.0661 61.46 62.9551 61.4456C62.8432 61.431 62.732 61.4328 62.6221 61.4595C62.5844 61.4686 62.5474 61.4807 62.5108 61.4937C62.4402 61.5186 62.3833 61.5631 62.3354 61.6202C62.2571 61.7135 62.2416 61.8564 62.3006 61.9632C62.3145 61.9884 62.333 62.0117 62.3522 62.0335C62.4142 62.1035 62.4879 62.1588 62.5719 62.1997C62.7073 62.2657 62.8426 62.3322 62.9788 62.3966C63.1637 62.4839 63.3434 62.5802 63.5131 62.6948C63.6393 62.7799 63.7487 62.8848 63.842 63.0034C63.9715 63.1681 64.0397 63.359 64.0509 63.5702C64.0606 63.7535 64.031 63.9295 63.9643 64.0999C63.9123 64.233 63.8393 64.3528 63.7395 64.4556C63.7157 64.48 63.6917 64.5041 63.668 64.5286C63.5164 64.685 63.3364 64.7957 63.1346 64.8761C62.9112 64.965 62.6803 65.016 62.4421 65.0401C62.3551 65.049 62.2684 65.0599 62.1803 65.0573Z" fill="#136DBB"/>
</g>
<defs>
<clipPath id="clip0_8_17">
<rect width="80" height="79.2793" fill="white"/>
</clipPath>
</defs>
</svg>
